<svg width="161" height="161" viewBox="0 0 161 161" fill="none" xmlns="http://www.w3.org/2000/svg">
<path d="M0 80.1316C0 21.8541 21.8541 0 80.1316 0C138.409 0 160.263 21.8541 160.263 80.1316C160.263 138.409 138.409 160.263 80.1316 160.263C21.8541 160.263 0 138.409 0 80.1316Z" fill="url(#paint0_linear_2_27)"/>
<path d="M80 75.7956L127 49.988V107.551L80 133V75.7956Z" fill="url(#paint1_linear_2_27)"/>
<path d="M80 75.7956L33 49.988V107.551L80 133V75.7956Z" fill="url(#paint2_linear_2_27)"/>
<path d="M80 27L127 49.988L80 76.1687L33 49.988L80 27Z" fill="url(#paint3_linear_2_27)"/>
<defs>
<linearGradient id="paint0_linear_2_27" x1="0" y1="0" x2="160" y2="160" gradientUnits="userSpaceOnUse">
<stop stop-color="white"/>
<stop offset="1" stop-color="#E1E2F4"/>
</linearGradient>
<linearGradient id="paint1_linear_2_27" x1="111.757" y1="35.1538" x2="81.096" y2="133.441" gradientUnits="userSpaceOnUse">
<stop stop-color="#FF8400"/>
<stop offset="1" stop-color="#FF0DB6"/>
</linearGradient>
<linearGradient id="paint2_linear_2_27" x1="78.0946" y1="73.4769" x2="33.2027" y2="93.1464" gradientUnits="userSpaceOnUse">
<stop stop-color="#B70050"/>
<stop offset="1" stop-color="#3E0298"/>
</linearGradient>
<linearGradient id="paint3_linear_2_27" x1="93.3378" y1="35.9398" x2="70.2904" y2="74.7832" gradientUnits="userSpaceOnUse">
<stop stop-color="#9B00A9"/>
<stop offset="1" stop-color="#D70027"/>
</linearGradient>
</defs>
</svg>
